<svg xmlns="http://www.w3.org/2000/svg" version="1.2" viewBox="0 0 350 350"><path fill="currentColor" d="M311.7 136.8c-29 0-59.7 7.7-84.7 16.2 24-11.7 51.5-28 71.5-48.1 14.9-14.8 14.9-38.9 0-53.7-14.8-14.8-38.9-14.8-53.7 0-20.5 20.5-36.7 47.7-48.4 71.4 8.6-25.3 16.5-56.2 16.5-84.6 0-21-17-38-37.9-38-21 0-38 17-38 38 0 29 7.7 59.7 16.2 84.7-11.7-24-28-51.5-48.1-71.5-14.8-14.8-38.9-14.8-53.7 0s-14.8 38.9 0 53.7c20.5 20.5 47.7 36.7 71.4 48.4-25.3-8.6-56.2-16.5-84.6-16.5-21 0-38 17-38 38 0 20.9 17 37.9 38 37.9 29 0 59.7-7.7 84.7-16.2-24 11.8-51.5 28.1-71.5 48.1-14.8 14.8-14.8 38.9 0 53.7 14.8 14.9 38.9 14.9 53.7 0 20.5-20.5 36.7-47.7 48.4-71.4-8.6 25.3-16.5 56.3-16.5 84.6 0 21 17 38 38 38 20.9 0 37.9-17 37.9-38 0-29-7.7-59.7-16.2-84.7 11.8 24 28.1 51.5 48.1 71.5 14.8 14.9 38.9 14.9 53.7 0 14.9-14.8 14.9-38.9 0-53.7-20.5-20.5-47.7-36.7-71.4-48.4 25.3 8.6 56.3 16.5 84.6 16.5 21 0 38-17 38-37.9 0-21-17-38-38-38"/></svg>