<svg xmlns="http://www.w3.org/2000/svg" version="1.2" viewBox="0 0 350 350"><path fill="currentColor" d="M349.8 154.8h-72.3l66.8-27.6-15.6-37.7-66.8 27.7L313 66l-28.8-28.8-51.1 51.1 27.6-66.8-37.6-15.6-27.7 66.8V.4h-40.7v72.3L127 5.9 89.3 21.5 117 88.3 65.9 37.2 37 66l51.2 51.2-66.8-27.7-15.6 37.7 66.8 27.6H.3v40.8h72.3L5.8 223.3l15.6 37.6 66.8-27.7L37 284.4l28.9 28.8 51.1-51.1-27.7 66.8 37.7 15.6 27.7-66.8V350h40.7v-72.3l27.7 66.8 37.6-15.6-27.6-66.8 51.1 51.1 28.8-28.8-51.1-51.2 66.8 27.7 15.6-37.6-66.8-27.7h72.3z"/></svg>