<svg xmlns="http://www.w3.org/2000/svg" version="1.2" viewBox="0 0 350 350"><path fill="currentColor" d="M349.7 174.8c0-19.6-14.8-35.7-33.8-37.8 15.4-11.3 20.2-32.7 10.4-49.6-9.8-17-30.7-23.5-48.2-15.8 7.7-17.5 1.2-38.4-15.8-48.2-16.9-9.7-38.3-5-49.6 10.5C210.6 14.8 194.5 0 175 0c-19.6 0-35.7 14.8-37.8 33.9-11.3-15.5-32.7-20.2-49.6-10.5-17 9.8-23.5 30.7-15.8 48.2-17.5-7.7-38.4-1.2-48.2 15.8-9.7 16.9-5 38.3 10.5 49.6C15 139.1.2 155.2.2 174.8c0 19.5 14.8 35.6 33.9 37.7-15.5 11.3-20.2 32.7-10.5 49.6 9.8 17 30.7 23.5 48.2 15.8-7.7 17.5-1.2 38.4 15.8 48.2 16.9 9.8 38.3 5 49.6-10.4 2.1 19 18.2 33.8 37.8 33.8 19.5 0 35.6-14.8 37.7-33.8 11.3 15.4 32.7 20.2 49.6 10.4 17-9.8 23.5-30.7 15.8-48.2 17.5 7.7 38.4 1.2 48.2-15.8 9.8-16.9 5-38.3-10.4-49.6 19-2.1 33.8-18.2 33.8-37.7"/></svg>