<svg xmlns="http://www.w3.org/2000/svg" version="1.2" viewBox="0 0 350 350"><path fill="currentColor" d="M349.5 174.8c0-10.1-4-19.3-10.4-26.1 4-8.4 4.9-18.3 1.8-27.9s-9.7-17.1-17.9-21.6c1.2-9.3-1-19-6.9-27.1-5.9-8.2-14.5-13.3-23.7-15-1.7-9.2-6.8-17.8-15-23.7-8.1-5.9-17.8-8.1-27.1-6.9-4.5-8.2-12-14.8-21.6-17.9s-19.5-2.2-27.9 1.8C194 4 184.8 0 174.7 0c-10 0-19.2 4-26 10.4-8.5-4-18.4-4.9-28-1.8-9.5 3.1-17 9.7-21.5 17.9-9.3-1.2-19 1-27.2 6.9-8.1 5.9-13.2 14.5-15 23.7-9.1 1.7-17.7 6.8-23.6 15-6 8.1-8.2 17.8-7 27.1-8.2 4.5-14.7 12-17.8 21.6-3.2 9.6-2.3 19.5 1.7 27.9-6.4 6.8-10.3 16-10.3 26.1 0 10 3.9 19.2 10.3 26-4 8.4-4.9 18.4-1.7 28 3.1 9.5 9.6 17 17.8 21.5-1.2 9.3 1 19 7 27.2 5.9 8.1 14.5 13.2 23.6 15 1.8 9.1 6.9 17.7 15 23.6 8.2 5.9 17.9 8.1 27.2 7 4.5 8.2 12 14.7 21.5 17.8 9.6 3.2 19.5 2.2 28-1.7 6.8 6.4 16 10.3 26 10.3 10.1 0 19.3-3.9 26.1-10.3 8.4 3.9 18.3 4.9 27.9 1.7 9.6-3.1 17.1-9.6 21.6-17.8 9.3 1.1 19-1.1 27.1-7 8.2-5.9 13.3-14.5 15-23.6 9.2-1.8 17.8-6.9 23.7-15 5.9-8.2 8.1-17.9 6.9-27.2 8.2-4.5 14.8-12 17.9-21.5 3.1-9.6 2.2-19.6-1.8-28 6.4-6.8 10.4-16 10.4-26"/></svg>