<svg xmlns="http://www.w3.org/2000/svg" version="1.2" viewBox="0 0 350 350"><path fill="currentColor" d="M276.8 128.3c29.8-2 57.3 17 72.9 43.4-1.5-9.8-4.3-19.7-8.6-29.2-17.5-39.4-59.3-61.3-101.4-58.9 24.9-16.6 58.1-13.9 84.9 1.2-6.3-7.7-13.6-14.9-22.2-21-34.8-25.3-81.9-23.4-117.2-.2 13.3-26.9 43.4-41.2 74.1-41.5-9.2-3.5-19.2-6.1-29.6-7.1C186.8 10.5 147 35.7 128 73.4c-1.9-29.9 17-57.3 43.5-73-9.8 1.6-19.7 4.3-29.3 8.7C102.9 26.6 81 68.3 83.4 110.5c-16.6-24.9-14-58.1 1.2-84.9-7.8 6.2-15 13.6-21 22.1-25.4 34.9-23.5 81.9-.3 117.3-26.8-13.3-41.1-43.4-41.4-74.2-3.6 9.3-6.2 19.2-7.2 29.7-4.5 42.8 20.7 82.7 58.4 101.6-29.8 2-57.3-16.9-72.9-43.4 1.6 9.8 4.3 19.7 8.6 29.2 17.5 39.4 59.3 61.3 101.5 58.9-24.9 16.6-58.2 13.9-85-1.2 6.3 7.7 13.6 14.9 22.2 21 34.8 25.4 81.9 23.4 117.2.2-13.2 26.9-43.4 41.2-74.1 41.5 9.3 3.5 19.2 6.1 29.7 7.1 42.8 4.6 82.6-20.7 101.6-58.4 1.9 29.9-17 57.3-43.5 73 9.8-1.6 19.7-4.3 29.3-8.7 39.4-17.5 61.2-59.2 58.8-101.4 16.6 24.9 14 58.2-1.1 84.9 7.7-6.2 14.9-13.6 21-22.1 25.3-34.8 23.4-81.9.2-117.2 26.9 13.2 41.2 43.3 41.5 74.1 3.5-9.3 6.1-19.2 7.1-29.7 4.5-42.8-20.7-82.6-58.4-101.6"/></svg>