<svg xmlns="http://www.w3.org/2000/svg" version="1.2" viewBox="0 0 350 350"><path fill="currentColor" d="M298.6 146.6c-18.4-5.4-37.3-6.6-56-3.6-20.6 3.2-41.1 11.4-61.1 24.5 10.4-20.5 23.5-37.3 39.1-49.8 14.1-11.5 30.3-19.5 48.2-24 30.4-7.6 55.4-1.9 55.7-1.8l1.2-5.2c-1.1-.2-26.3-6-58 1.9-18.6 4.6-35.5 13-50.3 24.9-16.2 13.1-29.9 30.4-40.6 51.7-1.3-22.9 1.7-44 8.9-62.6 6.5-17 16.5-32.1 29.8-44.8C238 36 262.4 28.4 262.8 28.3l-.8-2.6-.7-2.5c-1.1.3-25.8 8-49.3 30.6-13.8 13.3-24.3 29-31.2 46.7-7.5 19.5-10.6 41.3-9.2 65.1-12.6-19.2-20.6-38.9-23.7-58.7-2.8-17.9-1.7-36 3.4-53.7 8.7-30.1 26-48.9 26.2-49.2l-1.9-1.8-1.9-1.8c-.7.8-18.3 19.8-27.4 51.2-5.3 18.4-6.5 37.2-3.6 56 3.2 20.6 11.5 41.1 24.5 61-20.5-10.4-37.2-23.5-49.8-39-11.4-14.1-19.5-30.4-23.9-48.2-7.6-30.5-1.9-55.5-1.9-55.7l-2.5-.6-2.6-.6c-.3 1-6 26.3 1.8 57.9 4.7 18.7 13 35.6 24.9 50.4 13.1 16.2 30.5 29.8 51.8 40.6-23 1.2-44-1.7-62.7-8.9-16.9-6.6-32-16.6-44.8-29.8-21.8-22.6-29.4-47-29.5-47.3l-2.5.7-2.5.8c.3 1 7.9 25.8 30.6 49.3 13.3 13.8 29 24.3 46.7 31.1 16.5 6.4 34.8 9.6 54.5 9.6q5.2 0 10.6-.3c-19.2 12.6-38.9 20.5-58.7 23.6-18 2.9-36 1.7-53.7-3.3-30.1-8.7-49-26-49.2-26.3l-3.6 3.9c.8.7 19.8 18.3 51.1 27.3 11.9 3.5 24 5.2 36.1 5.2q10 0 20-1.6c20.5-3.2 41-11.4 61-24.5-10.4 20.5-23.5 37.3-39 49.8-14.2 11.5-30.4 19.5-48.2 24-30.5 7.6-55.5 1.9-55.8 1.9l-1.2 5.1c.7.1 9.9 2.2 24.1 2.2 9.5 0 21.2-.9 33.9-4.1 18.6-4.6 35.6-13 50.3-24.9 16.3-13 29.9-30.4 40.6-51.7 1.3 22.9-1.7 44-8.9 62.6-6.5 17-16.5 32.1-29.7 44.8-22.6 21.9-47.1 29.5-47.4 29.6l.8 2.5.8 2.5c1-.3 25.7-8 49.2-30.6 13.9-13.3 24.3-29 31.2-46.7 7.5-19.5 10.6-41.3 9.3-65.1 12.5 19.2 20.5 38.9 23.6 58.7 2.8 17.9 1.7 36-3.4 53.7-8.6 30.1-26 48.9-26.2 49.2l1.9 1.8 1.9 1.8c.8-.8 18.3-19.8 27.4-51.2 5.3-18.4 6.5-37.2 3.6-56-3.2-20.6-11.4-41.1-24.5-61 20.5 10.4 37.2 23.5 49.8 39 11.4 14.2 19.5 30.4 23.9 48.2 7.6 30.4 2 55.4 1.9 55.7l5.1 1.2c.3-1 6-26.3-1.8-57.9-4.6-18.7-13-35.6-24.9-50.4-13.1-16.2-30.5-29.8-51.8-40.6 23-1.2 44 1.7 62.7 8.9 17 6.6 32 16.6 44.8 29.8 21.8 22.6 29.4 47 29.5 47.3l2.5-.7 2.5-.8c-.3-1-7.9-25.8-30.5-49.3-13.3-13.8-29.1-24.3-46.8-31.1-19.4-7.5-41.3-10.6-65.1-9.3 19.3-12.6 39-20.5 58.7-23.6 18-2.9 36.1-1.7 53.7 3.4 30.2 8.6 49 25.9 49.2 26.2l1.8-1.9 1.8-1.9c-.8-.8-19.7-18.4-51.1-27.4"/></svg>